<svg version="1.1" xmlns="http://www.w3.org/2000/svg" viewBox="0 0 759.9998779296875 257.79998779296875" width="2279.9996337890625" height="773.3999633789062" filter="invert(93%) hue-rotate(180deg)">
  <!-- svg-source:excalidraw -->
  
  <defs>
    <style>
      @font-face {
        font-family: "Virgil";
        src: url("https://excalidraw.com/Virgil.woff2");
      }
      @font-face {
        font-family: "Cascadia";
        src: url("https://excalidraw.com/Cascadia.woff2");
      }
    </style>
  </defs>
  <g stroke-linecap="round" transform="translate(10 107.4000244140625) rotate(0 73.20002746582031 33.00001525878906)"><path d="M0.24 -1.48 C43.2 -0.45, 83.21 0.33, 145.74 -1.6 M0.69 -0.12 C36.03 0.25, 70.24 -0.61, 145.5 0.65 M144.65 1.58 C146.95 14.72, 147.47 28.36, 146.79 66.59 M146.1 -0.01 C146.14 16.59, 146.9 35.95, 145.8 66.45 M145.92 64.97 C109.86 65.74, 75.56 67.55, -1.89 65.17 M146.8 66.23 C102.49 66.09, 60.35 64.35, -0.17 67 M0.93 65.57 C-1.89 45.92, -0.92 21.71, 0.67 -1.49 M0.71 66.08 C-0.09 47.84, 0.27 30.6, -0.22 0.94" stroke="#000000" stroke-width="1" fill="none"></path></g><g transform="translate(254.7999267578125 10) rotate(0 98.5 23)"><text x="0" y="32" font-family="Virgil, Segoe UI Emoji" font-size="36px" fill="#000000" text-anchor="start" style="white-space: pre;" direction="ltr">&gt; vite build</text></g><g stroke-linecap="round"><g transform="translate(87.78762065961666 215.98746766696928) rotate(0 -0.5267559197641276 -16.528842757960348)"><path d="M-1.09 0.16 C-1.33 -4.89, -1.16 -25.88, -1.25 -31.37 M0.54 -0.81 C0.23 -6.11, -1.17 -28.03, -1.59 -33.22" stroke="#000000" stroke-width="1" fill="none"></path></g><g transform="translate(87.78762065961666 215.98746766696928) rotate(0 -0.5267559197641276 -16.528842757960348)"><path d="M5.14 -17.06 C3.72 -22.27, -0.23 -29.44, -1.36 -32.48 M4.65 -18.08 C3.15 -23.09, 2 -26.22, -1.93 -32.77" stroke="#000000" stroke-width="1" fill="none"></path></g><g transform="translate(87.78762065961666 215.98746766696928) rotate(0 -0.5267559197641276 -16.528842757960348)"><path d="M-5.77 -16.29 C-3.74 -21.64, -4.24 -29.05, -1.36 -32.48 M-6.27 -17.31 C-4.86 -22.54, -3.1 -25.88, -1.93 -32.77" stroke="#000000" stroke-width="1" fill="none"></path></g></g><g transform="translate(19.99993896484375 127.60000610351562) rotate(0 63 12.5)"><text x="0" y="18" font-family="Virgil, Segoe UI Emoji" font-size="20px" fill="#000000" text-anchor="start" style="white-space: pre;" direction="ltr">resolveConfig</text></g><g transform="translate(27.199951171875 222.79998779296875) rotate(0 60 12.5)"><text x="0" y="18" font-family="Virgil, Segoe UI Emoji" font-size="20px" fill="#000000" text-anchor="start" style="white-space: pre;" direction="ltr">vite.config.js</text></g><g stroke-linecap="round"><g transform="translate(165.56066757838153 137.30717015886296) rotate(0 14.291431231480146 -0.9303264756287604)"><path d="M-0.64 -0.03 C4.35 -0.15, 24.12 -0.01, 29.23 -0.3 M1.22 -1.09 C6.11 -1.56, 23.51 -1.9, 28.24 -1.82" stroke="#000000" stroke-width="1" fill="none"></path></g><g transform="translate(165.56066757838153 137.30717015886296) rotate(0 14.291431231480146 -0.9303264756287604)"><path d="M14.45 3.18 C19.18 3, 20.72 0.14, 28.44 -2.27 M14.53 3.95 C19.53 1.33, 23.83 -0.96, 27.93 -1.18" stroke="#000000" stroke-width="1" fill="none"></path></g><g transform="translate(165.56066757838153 137.30717015886296) rotate(0 14.291431231480146 -0.9303264756287604)"><path d="M14.41 -6.86 C19.18 -4.62, 20.74 -5.06, 28.44 -2.27 M14.49 -6.08 C19.51 -5.21, 23.83 -4, 27.93 -1.18" stroke="#000000" stroke-width="1" fill="none"></path></g></g><g stroke-linecap="round" transform="translate(398.39996337890625 104.19998168945312) rotate(0 73.5999755859375 31.20001220703125)"><path d="M0.89 -0.93 C41.62 0.53, 83.79 -0.19, 148.48 1.21 M0.77 -0.21 C51.82 -1.48, 104.74 -0.07, 146.45 0.35 M147.18 1.5 C146.59 15.8, 148.32 30.72, 145.41 60.68 M146.65 0.22 C147.28 24.27, 146.91 48.64, 146.35 62.47 M145.54 64.12 C111.29 61.77, 76.33 62.57, -0.35 61.05 M146.37 63.26 C90.21 61.83, 30.4 61.72, 0.47 61.43 M-0.41 61.59 C-1.56 45.71, 0.13 25.72, 1.01 0.73 M-0.64 61.46 C0.1 39.44, 0.32 18.06, -0.1 0" stroke="#000000" stroke-width="1" fill="none"></path></g><g transform="translate(415.5999755859375 123.60003662109375) rotate(0 57.5 12.5)"><text x="0" y="18" font-family="Virgil, Segoe UI Emoji" font-size="20px" fill="#000000" text-anchor="start" style="white-space: pre;" direction="ltr">rollup.bundle</text></g><g stroke-linecap="round"><g transform="translate(358.1182823727738 139.25322798970683) rotate(0 17.39969211205357 -0.8464493599673801)"><path d="M-1.05 -0.32 C4.82 -0.39, 29.75 -1.41, 35.85 -1.5 M0.6 -1.53 C6.34 -1.34, 29.63 -0.52, 35.37 -0.16" stroke="#000000" stroke-width="1" fill="none"></path></g><g transform="translate(358.1182823727738 139.25322798970683) rotate(0 17.39969211205357 -0.8464493599673801)"><path d="M18.22 6.36 C24.08 4.19, 30.91 0.51, 35.7 -1.06 M17.85 5.83 C21.56 4.31, 26.69 3.61, 34.55 -0.97" stroke="#000000" stroke-width="1" fill="none"></path></g><g transform="translate(358.1182823727738 139.25322798970683) rotate(0 17.39969211205357 -0.8464493599673801)"><path d="M18.77 -5.58 C24.33 -3.55, 30.97 -3.02, 35.7 -1.06 M18.41 -6.11 C22 -4.99, 27.02 -3.03, 34.55 -0.97" stroke="#000000" stroke-width="1" fill="none"></path></g></g><g stroke-linecap="round" transform="translate(197.19989013671875 108.60002136230469) rotate(0 78.39999389648438 28.999984741210938)"><path d="M1.1 -0.07 C59.22 1.53, 118.88 2.72, 158.29 -1.6 M-0.04 0.32 C58.03 1.57, 113.7 0.26, 156.44 0.1 M154.9 0.47 C155.56 22, 157.66 43.78, 155.56 58.01 M156.69 0.31 C157.64 18.33, 156.35 35.3, 157.62 58.53 M155.33 56.67 C121.61 55.45, 90.27 55.31, -0.79 59.41 M156.39 57.55 C121.9 57.61, 88.06 57.61, -0.67 57.91 M-1.3 56.78 C0.35 33.93, -0.89 10.11, -0.41 -0.33 M0.61 58.9 C-0.12 42.17, 0.47 26.16, -0.66 -0.19" stroke="#000000" stroke-width="1" fill="none"></path></g><g transform="translate(206.39990234375 125.59999084472656) rotate(0 69 12.5)"><text x="0" y="18" font-family="Virgil, Segoe UI Emoji" font-size="20px" fill="#000000" text-anchor="start" style="white-space: pre;" direction="ltr">prepareOutDir</text></g><g stroke-linecap="round"><g transform="translate(551.961518958211 136.82994041358853) rotate(0 20.910600285241344 -1.240088777668518)"><path d="M-0.44 0.14 C6.35 0.14, 33.27 -0.55, 40.17 -0.62 M1.53 -0.83 C8.71 -1.16, 35.86 -2.38, 42.26 -2.62" stroke="#000000" stroke-width="1" fill="none"></path></g><g transform="translate(551.961518958211 136.82994041358853) rotate(0 20.910600285241344 -1.240088777668518)"><path d="M23.38 3.29 C28.44 2.62, 33.9 1.98, 40.89 -2.74 M22.53 4.34 C28.14 3.72, 32.12 2.6, 42.47 -2.2" stroke="#000000" stroke-width="1" fill="none"></path></g><g transform="translate(551.961518958211 136.82994041358853) rotate(0 20.910600285241344 -1.240088777668518)"><path d="M22.78 -10.84 C27.92 -7.91, 33.53 -4.95, 40.89 -2.74 M21.93 -9.8 C27.78 -7.17, 31.89 -5.05, 42.47 -2.2" stroke="#000000" stroke-width="1" fill="none"></path></g></g><g stroke-linecap="round" transform="translate(597.199951171875 106.20004272460938) rotate(0 74 29)"><path d="M-0.7 1.25 C41.5 2.67, 84.75 -0.33, 149.93 -1.56 M-0.57 -0.36 C44.97 -0.79, 88.34 -0.77, 147.22 -0.71 M147.2 1.62 C150.36 19.17, 148.63 35.3, 146.06 56.33 M147.08 0.57 C147.39 12.64, 148.42 26.76, 148.64 58.69 M147.09 59.24 C100.12 57.82, 54.17 59.27, -1.53 58.06 M147.34 58.58 C116.17 58.26, 83.32 59.05, -0.57 57.15 M1.35 57.32 C0.88 41.94, -1.66 22.79, 0 1.62 M0.21 57.57 C-0.48 40.19, 0.33 22.19, -0.75 0.29" stroke="#000000" stroke-width="1" fill="none"></path></g><g transform="translate(618 122.800048828125) rotate(0 55.5 12.5)"><text x="0" y="18" font-family="Virgil, Segoe UI Emoji" font-size="20px" fill="#000000" text-anchor="start" style="white-space: pre;" direction="ltr">bundle.write</text></g><g stroke-linecap="round" transform="translate(399.9998779296875 192.60006713867188) rotate(0 175 24.199996948242188)"><path d="M-0.05 0.06 C138.8 0.02, 274.43 0.16, 350.93 -0.01 M348.98 0.98 C349.78 9.81, 348.01 18.31, 348.29 46.94 M350.58 47.25 C211.53 47.26, 72.39 47.74, 1.18 49.06 M1.64 49.06 C-1 36.18, 2.02 25.64, -0.84 -1.08" stroke="#000000" stroke-width="1.5" fill="none" stroke-dasharray="1.5 7"></path></g><g transform="translate(421.19989013671875 204.00006103515625) rotate(0 154.5 12.5)"><text x="0" y="18" font-family="Virgil, Segoe UI Emoji" font-size="20px" fill="#000000" text-anchor="start" style="white-space: pre;" direction="ltr">Vite's internal and User Plugins</text></g><g transform="translate(37.599945068359375 27.600051879882812) rotate(0 49 12.5)"><text x="0" y="18" font-family="Virgil, Segoe UI Emoji" font-size="20px" fill="#000000" text-anchor="start" style="white-space: pre;" direction="ltr">cli options</text></g><g stroke-linecap="round"><g transform="translate(85.199951171875 63.00004577636719) rotate(0 0.04151558332608829 16.493771820212714)"><path d="M-0.84 0.96 C-0.67 6.55, -0.07 27.26, 0.39 32.57 M0.92 0.42 C0.95 5.74, -0.91 25.67, -0.78 30.75" stroke="#000000" stroke-width="1" fill="none"></path></g><g transform="translate(85.199951171875 63.00004577636719) rotate(0 0.04151558332608829 16.493771820212714)"><path d="M-4.36 14.95 C-3.8 20.8, -2.29 23.9, -0.12 29.99 M-5.41 15.97 C-3.87 21.5, -1.39 26.48, -0.48 30.31" stroke="#000000" stroke-width="1" fill="none"></path></g><g transform="translate(85.199951171875 63.00004577636719) rotate(0 0.04151558332608829 16.493771820212714)"><path d="M6.58 15.39 C4.42 21.05, 3.2 24.05, -0.12 29.99 M5.53 16.41 C3.13 21.69, 1.65 26.51, -0.48 30.31" stroke="#000000" stroke-width="1" fill="none"></path></g></g></svg>