<svg id="Layer_1" data-name="Layer 1" xmlns="http://www.w3.org/2000/svg" viewBox="-30 -50 380 380"><defs><style>.cls-1{fill:#f8c307;}.cls-2{fill:#fff;}</style></defs><path class="cls-1" d="M92.67,395.29v-46.4h36.8V161.69H92.67v-46.4h144q25.59,0,44.6,8.61t29.6,24.39q10.59,15.81,10.6,37.8v4q0,19.22-7.2,31.41t-17,18.79a73.93,73.93,0,0,1-18.6,9.4v7.21a72.39,72.39,0,0,1,19.2,9q10.39,6.6,17.8,19t7.4,32.4v4q0,23.2-10.8,39.8a69.56,69.56,0,0,1-29.8,25.41q-19,8.79-44.2,8.79Zm89.6-164.79h48.8q16.4,0,27-8.41t10.6-23.19v-4q0-15.21-10.4-23.4t-27.2-8.21h-48.8Zm0,116.79h49.6q17.19,0,27.8-8.4t10.6-24v-4q0-15.58-10.4-24t-28-8.39h-49.6Z" transform="translate(-92.67 -115.29)"/><path class="cls-2" d="M375.06,395.29v-280h24v280Z" transform="translate(-92.67 -115.29)"/></svg>